<?xml version="1.0" standalone="no"?><!DOCTYPE svg PUBLIC "-//W3C//DTD SVG 1.1//EN" "http://www.w3.org/Graphics/SVG/1.1/DTD/svg11.dtd"><svg t="1747904614671" class="icon" viewBox="0 0 1024 1024" version="1.1" xmlns="http://www.w3.org/2000/svg" p-id="47814" xmlns:xlink="http://www.w3.org/1999/xlink" width="200" height="200"><path d="M170.666667 85.333333l213.333333 0 85.333333 128 384 0q52.992 0 90.496 37.504t37.504 90.496l0 469.333333q0 52.992-37.504 90.496t-90.496 37.504l-682.666667 0q-52.992 0-90.496-37.504t-37.504-90.496l0-597.333333q0-52.992 37.504-90.496t90.496-37.504zM423.68 298.666667l-82.346667-128-170.666667 0q-17.664 0-30.165333 12.501333t-12.501333 30.165333l0 597.333333q0 17.664 12.501333 30.165333t30.165333 12.501333l682.666667 0q17.664 0 30.165333-12.501333t12.501333-30.165333l0-469.333333q0-17.664-12.501333-30.165333t-30.165333-12.501333l-429.653333 0z" p-id="47815" fill="#000000"></path></svg>