<?xml version="1.0" standalone="no"?><!DOCTYPE svg PUBLIC "-//W3C//DTD SVG 1.1//EN" "http://www.w3.org/Graphics/SVG/1.1/DTD/svg11.dtd"><svg t="1747971745669" class="icon" viewBox="0 0 1073 1024" version="1.1" xmlns="http://www.w3.org/2000/svg" p-id="3330" xmlns:xlink="http://www.w3.org/1999/xlink" width="209.5703125" height="200"><path d="M1073.773714 544c0 13.714286-8.557714 27.428571-17.700571 37.705143l-192 226.304C830.939429 846.848 763.501714 877.714286 713.216 877.714286h-621.714286c-20.553143 0-49.700571-6.290286-49.700571-32 0-13.714286 8.557714-27.428571 17.700571-37.705143l192-226.304C284.635429 542.866286 352.073143 512 402.358857 512h621.714286c20.553143 0 49.700571 6.290286 49.700571 32zM877.787429 347.428571V438.857143H402.358857c-71.424 0-160 40.557714-206.299428 95.414857L0.621714 763.977143c0-4.571429-0.585143-9.728-0.585143-14.299429v-548.571428c0-70.290286 57.709714-128 128-128h182.857143c70.290286 0 128 57.709714 128 128v18.285714h310.857143c70.290286 0 128 57.709714 128 128z" fill="#ffffff" p-id="3331"></path></svg>